<mxfile host="app.diagrams.net" modified="2021-06-23T08:28:41.679Z" agent="5.0 (Macintosh; Intel Mac OS X 10_16_0) AppleWebKit/537.36 (KHTML, like Gecko) Chrome/81.0.4044.138 Safari/537.36" etag="VJXCWZB-LZ4pHyvTq_IV" version="14.8.0" type="github">
  <diagram id="kgpKYQtTHZ0yAKxKKP6v" name="Page-1">
    <mxGraphModel dx="2148" dy="792" grid="1" gridSize="10" guides="1" tooltips="1" connect="1" arrows="1" fold="1" page="1" pageScale="1" pageWidth="850" pageHeight="1100" math="0" shadow="0">
      <root>
        <mxCell id="0" />
        <mxCell id="1" parent="0" />
        <mxCell id="3nuBFxr9cyL0pnOWT2aG-1" value="app service" style="shape=umlLifeline;perimeter=lifelinePerimeter;container=1;collapsible=0;recursiveResize=0;rounded=0;shadow=0;strokeWidth=1;" parent="1" vertex="1">
          <mxGeometry x="120" y="80" width="100" height="560" as="geometry" />
        </mxCell>
        <mxCell id="3nuBFxr9cyL0pnOWT2aG-2" value="" style="points=[];perimeter=orthogonalPerimeter;rounded=0;shadow=0;strokeWidth=1;" parent="3nuBFxr9cyL0pnOWT2aG-1" vertex="1">
          <mxGeometry x="45" y="80" width="10" height="440" as="geometry" />
        </mxCell>
        <mxCell id="ESiC_F3gS_lafTuC3X_f-3" value="Actor" style="shape=umlActor;verticalLabelPosition=bottom;verticalAlign=top;html=1;outlineConnect=0;" vertex="1" parent="1">
          <mxGeometry x="-10" y="85" width="30" height="60" as="geometry" />
        </mxCell>
        <mxCell id="ESiC_F3gS_lafTuC3X_f-8" value="" style="endArrow=none;dashed=1;html=1;" edge="1" parent="1">
          <mxGeometry width="50" height="50" relative="1" as="geometry">
            <mxPoint x="5" y="635" as="sourcePoint" />
            <mxPoint x="4.5" y="165" as="targetPoint" />
          </mxGeometry>
        </mxCell>
        <mxCell id="ESiC_F3gS_lafTuC3X_f-10" value="app service" style="shape=umlLifeline;perimeter=lifelinePerimeter;container=1;collapsible=0;recursiveResize=0;rounded=0;shadow=0;strokeWidth=1;" vertex="1" parent="1">
          <mxGeometry x="300" y="80" width="100" height="560" as="geometry" />
        </mxCell>
        <mxCell id="ESiC_F3gS_lafTuC3X_f-11" value="" style="points=[];perimeter=orthogonalPerimeter;rounded=0;shadow=0;strokeWidth=1;" vertex="1" parent="ESiC_F3gS_lafTuC3X_f-10">
          <mxGeometry x="45" y="80" width="10" height="440" as="geometry" />
        </mxCell>
        <mxCell id="ESiC_F3gS_lafTuC3X_f-12" value="app service" style="shape=umlLifeline;perimeter=lifelinePerimeter;container=1;collapsible=0;recursiveResize=0;rounded=0;shadow=0;strokeWidth=1;" vertex="1" parent="1">
          <mxGeometry x="480" y="80" width="100" height="560" as="geometry" />
        </mxCell>
        <mxCell id="ESiC_F3gS_lafTuC3X_f-13" value="" style="points=[];perimeter=orthogonalPerimeter;rounded=0;shadow=0;strokeWidth=1;" vertex="1" parent="ESiC_F3gS_lafTuC3X_f-12">
          <mxGeometry x="45" y="80" width="10" height="440" as="geometry" />
        </mxCell>
      </root>
    </mxGraphModel>
  </diagram>
</mxfile>
